<mxfile host="Electron" modified="2024-02-29T13:31:01.707Z" agent="Mozilla/5.0 (Macintosh; Intel Mac OS X 10_15_7) AppleWebKit/537.36 (KHTML, like Gecko) draw.io/23.1.5 Chrome/120.0.6099.109 Electron/28.1.0 Safari/537.36" etag="zJppIqNiPxTQXZt6eLme" version="23.1.5" type="device">
  <diagram name="Page-1" id="ElxC92-o7pgc_58mzh76">
    <mxGraphModel dx="951" dy="1686" grid="1" gridSize="10" guides="1" tooltips="1" connect="1" arrows="1" fold="1" page="1" pageScale="1" pageWidth="827" pageHeight="1169" math="0" shadow="0">
      <root>
        <mxCell id="0" />
        <mxCell id="1" parent="0" />
        <mxCell id="oD3MLmVL2_50AxEymahu-4" value="" style="shape=cube;whiteSpace=wrap;html=1;boundedLbl=1;backgroundOutline=1;darkOpacity=0.05;darkOpacity2=0.1;direction=east;size=80;fillColor=#999999;strokeColor=#666666;fontColor=#333333;" vertex="1" parent="1">
          <mxGeometry x="120" y="280" width="1330" height="680" as="geometry" />
        </mxCell>
        <mxCell id="oD3MLmVL2_50AxEymahu-10" value="" style="endArrow=none;html=1;rounded=0;strokeWidth=4;shadow=1;fillColor=#e51400;strokeColor=#B20000;" edge="1" parent="1">
          <mxGeometry width="50" height="50" relative="1" as="geometry">
            <mxPoint x="180" y="290" as="sourcePoint" />
            <mxPoint x="260" y="340" as="targetPoint" />
          </mxGeometry>
        </mxCell>
        <mxCell id="oD3MLmVL2_50AxEymahu-11" value="" style="endArrow=none;html=1;rounded=0;strokeWidth=4;shadow=1;fillColor=#e51400;strokeColor=#B20000;" edge="1" parent="1">
          <mxGeometry width="50" height="50" relative="1" as="geometry">
            <mxPoint x="500" y="290" as="sourcePoint" />
            <mxPoint x="580" y="340" as="targetPoint" />
          </mxGeometry>
        </mxCell>
        <mxCell id="oD3MLmVL2_50AxEymahu-12" value="" style="endArrow=none;html=1;rounded=0;strokeWidth=4;shadow=1;fillColor=#e51400;strokeColor=#B20000;" edge="1" parent="1">
          <mxGeometry width="50" height="50" relative="1" as="geometry">
            <mxPoint x="260" y="340" as="sourcePoint" />
            <mxPoint x="580" y="340" as="targetPoint" />
          </mxGeometry>
        </mxCell>
        <mxCell id="oD3MLmVL2_50AxEymahu-13" value="" style="endArrow=none;html=1;rounded=0;strokeWidth=4;shadow=1;fillColor=#e51400;strokeColor=#B20000;" edge="1" parent="1">
          <mxGeometry width="50" height="50" relative="1" as="geometry">
            <mxPoint x="180" y="290" as="sourcePoint" />
            <mxPoint x="500" y="290" as="targetPoint" />
          </mxGeometry>
        </mxCell>
        <mxCell id="oD3MLmVL2_50AxEymahu-16" value="&lt;h1&gt;&lt;font color=&quot;#000000&quot; style=&quot;font-size: 31px;&quot;&gt;SOS&lt;/font&gt;&lt;/h1&gt;" style="text;html=1;align=center;verticalAlign=middle;whiteSpace=wrap;rounded=0;fillColor=#B20000;fontColor=#ffffff;strokeColor=#B20000;gradientColor=none;" vertex="1" parent="1">
          <mxGeometry x="260" y="290" width="240" height="50" as="geometry" />
        </mxCell>
        <mxCell id="oD3MLmVL2_50AxEymahu-18" value="" style="verticalLabelPosition=bottom;verticalAlign=top;html=1;shape=mxgraph.basic.orthogonal_triangle;strokeColor=#B20000;fillColor=#B20000;" vertex="1" parent="1">
          <mxGeometry x="500" y="290" width="80" height="50" as="geometry" />
        </mxCell>
        <mxCell id="oD3MLmVL2_50AxEymahu-20" value="" style="verticalLabelPosition=bottom;verticalAlign=top;html=1;shape=mxgraph.basic.orthogonal_triangle;strokeColor=#B20000;fillColor=#B20000;direction=west;" vertex="1" parent="1">
          <mxGeometry x="180" y="290" width="80" height="50" as="geometry" />
        </mxCell>
        <mxCell id="oD3MLmVL2_50AxEymahu-21" value="&lt;font style=&quot;font-size: 70px;&quot;&gt;Smerte&lt;/font&gt;" style="labelPosition=center;verticalLabelPosition=middle;align=center;html=1;shape=mxgraph.basic.shaded_button;dx=10;fillColor=#e6d0de;strokeColor=#996185;whiteSpace=wrap;gradientColor=#d5739d;gradientDirection=radial;" vertex="1" parent="1">
          <mxGeometry x="220" y="370" width="380" height="280" as="geometry" />
        </mxCell>
        <mxCell id="oD3MLmVL2_50AxEymahu-26" value="&lt;font style=&quot;font-size: 70px;&quot;&gt;Hjelp&lt;/font&gt;" style="labelPosition=center;verticalLabelPosition=middle;align=center;html=1;shape=mxgraph.basic.shaded_button;dx=10;fillColor=#33FFFF;strokeColor=#6c8ebf;whiteSpace=wrap;gradientColor=#00CCCC;gradientDirection=radial;" vertex="1" parent="1">
          <mxGeometry x="220" y="660" width="380" height="280" as="geometry" />
        </mxCell>
        <mxCell id="oD3MLmVL2_50AxEymahu-27" value="&lt;font style=&quot;font-size: 70px;&quot;&gt;Drikke&lt;/font&gt;" style="labelPosition=center;verticalLabelPosition=middle;align=center;html=1;shape=mxgraph.basic.shaded_button;dx=10;fillColor=#dae8fc;strokeColor=#6c8ebf;whiteSpace=wrap;gradientColor=#7ea6e0;gradientDirection=radial;" vertex="1" parent="1">
          <mxGeometry x="640" y="370" width="380" height="280" as="geometry" />
        </mxCell>
        <mxCell id="oD3MLmVL2_50AxEymahu-28" value="&lt;font style=&quot;font-size: 70px;&quot;&gt;Mat&amp;nbsp;&lt;/font&gt;" style="labelPosition=center;verticalLabelPosition=middle;align=center;html=1;shape=mxgraph.basic.shaded_button;dx=10;fillColor=#d5e8d4;strokeColor=#82b366;whiteSpace=wrap;gradientColor=#97d077;gradientDirection=radial;" vertex="1" parent="1">
          <mxGeometry x="1051" y="370" width="380" height="280" as="geometry" />
        </mxCell>
        <mxCell id="oD3MLmVL2_50AxEymahu-29" value="" style="labelPosition=center;verticalLabelPosition=middle;align=center;html=1;shape=mxgraph.basic.shaded_button;dx=10;fillColor=#dae8fc;strokeColor=#6c8ebf;whiteSpace=wrap;gradientColor=#7ea6e0;gradientDirection=radial;" vertex="1" parent="1">
          <mxGeometry x="1060" y="660" width="380" height="280" as="geometry" />
        </mxCell>
        <mxCell id="oD3MLmVL2_50AxEymahu-30" value="&lt;font style=&quot;font-size: 70px;&quot;&gt;Toalett&amp;nbsp;&lt;/font&gt;" style="labelPosition=center;verticalLabelPosition=middle;align=center;html=1;shape=mxgraph.basic.shaded_button;dx=10;fillColor=#FFFF66;strokeColor=#6c8ebf;whiteSpace=wrap;gradientColor=#CCCC00;gradientDirection=radial;" vertex="1" parent="1">
          <mxGeometry x="640" y="660" width="380" height="280" as="geometry" />
        </mxCell>
        <mxCell id="oD3MLmVL2_50AxEymahu-31" value="" style="html=1;verticalLabelPosition=bottom;align=center;labelBackgroundColor=#ffffff;verticalAlign=top;strokeWidth=2;strokeColor=#0080F0;shadow=0;dashed=0;shape=mxgraph.ios7.icons.back;" vertex="1" parent="1">
          <mxGeometry x="1150" y="720" width="220" height="150" as="geometry" />
        </mxCell>
      </root>
    </mxGraphModel>
  </diagram>
</mxfile>
